<svg width="135" height="57" viewBox="0 0 135 57" fill="none" xmlns="http://www.w3.org/2000/svg">
<path d="M0 56.2414V0.758558H35.7518V12.8954H13.8041V22.4316H33.5669V34.5684H13.8041V56.2414H0ZM40.8289 56.2414V0.758558H62.8758C66.7489 0.758558 70.0014 1.32747 72.6331 2.4653C75.2814 3.60313 77.2759 5.21054 78.6165 7.28754C79.9738 9.36454 80.6524 11.8118 80.6524 14.6293C80.6524 16.6702 80.2386 18.5304 79.411 20.21C78.6 21.8898 77.4579 23.2984 75.9848 24.4362C74.5118 25.5561 72.7903 26.3327 70.8207 26.7661V27.308C73.0055 27.3983 74.9917 28.0034 76.7793 29.1231C78.5668 30.2248 79.9903 31.7509 81.0496 33.7015C82.109 35.634 82.6386 37.9097 82.6386 40.5284C82.6386 43.5627 81.9103 46.2628 80.4538 48.6287C79.0138 50.9948 76.9614 52.855 74.2965 54.2096C71.6317 55.5642 68.4538 56.2414 64.7628 56.2414H40.8289ZM54.633 44.2129H61.0882C63.4056 44.2129 65.1434 43.7434 66.3021 42.8042C67.4606 41.847 68.04 40.4382 68.04 38.578C68.04 37.2776 67.7669 36.1758 67.2207 35.2728C66.6745 34.3697 65.8966 33.6834 64.8869 33.2139C63.8938 32.7443 62.6937 32.5095 61.2869 32.5095H54.633V44.2129ZM54.633 23.19H60.2938C61.502 23.19 62.5696 22.9825 63.4966 22.567C64.4234 22.1515 65.1434 21.5555 65.6565 20.779C66.1861 19.9843 66.4511 19.018 66.4511 17.8802C66.4511 16.1645 65.8883 14.855 64.7628 13.952C63.6372 13.0309 62.2138 12.5703 60.4923 12.5703H54.633V23.19ZM135 21.5646H120.997C120.898 20.3004 120.633 19.1535 120.203 18.124C119.789 17.0945 119.21 16.2096 118.465 15.4691C117.737 14.7105 116.851 14.1326 115.808 13.7353C114.765 13.3199 113.582 13.1122 112.258 13.1122C109.941 13.1122 107.979 13.7262 106.374 14.9543C104.785 16.1826 103.577 17.9434 102.749 20.2372C101.938 22.5309 101.532 25.2851 101.532 28.5001C101.532 31.8954 101.946 34.74 102.774 37.0338C103.618 39.3094 104.834 41.0251 106.423 42.181C108.012 43.3189 109.924 43.8878 112.159 43.8878C113.433 43.8878 114.575 43.7162 115.585 43.3731C116.594 43.0118 117.472 42.4972 118.216 41.8288C118.961 41.1607 119.566 40.3569 120.029 39.4178C120.509 38.4605 120.832 37.386 120.997 36.194L135 36.3022C134.834 38.6501 134.23 41.0432 133.187 43.4814C132.145 45.9016 130.663 48.1411 128.743 50.2001C126.84 52.241 124.481 53.8844 121.667 55.1306C118.854 56.3768 115.585 57 111.861 57C107.193 57 103.006 55.9073 99.2979 53.722C95.6068 51.5366 92.6854 48.3217 90.5337 44.0775C88.3985 39.8331 87.331 34.6407 87.331 28.5001C87.331 22.3232 88.4234 17.1217 90.6083 12.8954C92.7931 8.65114 95.7392 5.44534 99.4469 3.27805C103.154 1.09269 107.292 0 111.861 0C115.072 0 118.026 0.478611 120.724 1.43583C123.422 2.39306 125.789 3.79278 127.825 5.63498C129.861 7.45913 131.499 9.70769 132.741 12.3807C133.982 15.0537 134.735 18.1151 135 21.5646Z" fill="white"/>
</svg>
